<svg width="129" height="40" viewBox="0 0 129 40" fill="none" xmlns="http://www.w3.org/2000/svg">
<path d="M10.08 27.76H12.425V34.095H10.08V27.76ZM10.395 27.2V8.055L12.075 7.67V27.27L10.395 27.2ZM10.08 1.475H12.425V7.25L10.08 7.6V1.475ZM17.815 11.66C17.6517 11.4967 17.3483 11.275 16.905 10.995C16.485 10.715 15.96 10.4467 15.33 10.19C14.7233 9.93333 14.0583 9.71167 13.335 9.525C12.6117 9.315 11.8767 9.21 11.13 9.21C9.82333 9.21 8.83167 9.455 8.155 9.945C7.50167 10.435 7.175 11.1233 7.175 12.01C7.175 12.6867 7.385 13.2233 7.805 13.62C8.225 14.0167 8.855 14.355 9.695 14.635C10.535 14.915 11.585 15.2183 12.845 15.545C14.4783 15.9417 15.89 16.4317 17.08 17.015C18.2933 17.575 19.215 18.3217 19.845 19.255C20.4983 20.165 20.825 21.3783 20.825 22.895C20.825 24.225 20.58 25.3683 20.09 26.325C19.6 27.2583 18.9233 28.0167 18.06 28.6C17.1967 29.1833 16.205 29.615 15.085 29.895C13.9883 30.1517 12.8333 30.28 11.62 30.28C10.3833 30.28 9.135 30.1517 7.875 29.895C6.63833 29.6383 5.44833 29.2767 4.305 28.81C3.185 28.32 2.14667 27.7367 1.19 27.06L3.325 22.895C3.535 23.105 3.90833 23.385 4.445 23.735C4.98167 24.0617 5.62333 24.4 6.37 24.75C7.14 25.0767 7.98 25.3567 8.89 25.59C9.82333 25.8233 10.7567 25.94 11.69 25.94C12.9967 25.94 13.9883 25.7183 14.665 25.275C15.3417 24.8317 15.68 24.2017 15.68 23.385C15.68 22.6383 15.4117 22.055 14.875 21.635C14.3383 21.215 13.58 20.8533 12.6 20.55C11.6433 20.2233 10.5233 19.8733 9.24 19.5C7.65333 19.0567 6.335 18.5667 5.285 18.03C4.235 17.47 3.45333 16.77 2.94 15.93C2.42667 15.09 2.17 14.04 2.17 12.78C2.17 11.0767 2.57833 9.65333 3.395 8.51C4.21167 7.34333 5.30833 6.46833 6.685 5.885C8.06167 5.27833 9.59 4.975 11.27 4.975C12.4367 4.975 13.5333 5.10333 14.56 5.36C15.61 5.61667 16.59 5.955 17.5 6.375C18.41 6.795 19.2267 7.25 19.95 7.74L17.815 11.66ZM23.5126 30C23.5126 28.95 23.5943 28.005 23.7576 27.165C23.921 26.325 24.201 25.5433 24.5976 24.82C25.0176 24.0967 25.5776 23.42 26.2776 22.79C27.001 22.1367 27.911 21.5067 29.0076 20.9C29.9643 20.3867 30.8043 19.9433 31.5276 19.57C32.251 19.1733 32.8576 18.8117 33.3476 18.485C33.861 18.1583 34.246 17.8317 34.5026 17.505C34.7593 17.155 34.8876 16.7583 34.8876 16.315C34.8876 15.8483 34.7593 15.4283 34.5026 15.055C34.246 14.6583 33.8843 14.3433 33.4176 14.11C32.951 13.8767 32.3676 13.76 31.6676 13.76C31.1076 13.76 30.5826 13.83 30.0926 13.97C29.626 14.11 29.1826 14.3083 28.7626 14.565C28.366 14.8217 27.9926 15.1133 27.6426 15.44C27.2926 15.7433 26.9776 16.07 26.6976 16.42L23.7226 12.99C24.0493 12.6633 24.481 12.3133 25.0176 11.94C25.5776 11.5433 26.231 11.1817 26.9776 10.855C27.7476 10.505 28.5876 10.225 29.4976 10.015C30.431 9.78167 31.4226 9.665 32.4726 9.665C34.0593 9.665 35.4126 9.92167 36.5326 10.435C37.6526 10.925 38.5043 11.6133 39.0876 12.5C39.6943 13.3867 39.9976 14.425 39.9976 15.615C39.9976 16.4317 39.846 17.155 39.5426 17.785C39.2393 18.415 38.8543 18.975 38.3876 19.465C37.921 19.9317 37.4076 20.3517 36.8476 20.725C36.311 21.0983 35.786 21.425 35.2726 21.705C34.5493 22.0783 33.896 22.4283 33.3126 22.755C32.7293 23.0583 32.216 23.3733 31.7726 23.7C31.3293 24.0033 30.9326 24.3183 30.5826 24.645C30.256 24.9717 29.9643 25.345 29.7076 25.765H40.3826V30H23.5126ZM61.7135 19.745C61.7135 21.7983 61.3168 23.63 60.5235 25.24C59.7535 26.8267 58.6801 28.075 57.3035 28.985C55.9501 29.895 54.4101 30.35 52.6835 30.35C50.9568 30.35 49.4051 29.895 48.0285 28.985C46.6751 28.075 45.6018 26.8267 44.8085 25.24C44.0385 23.63 43.6535 21.7983 43.6535 19.745C43.6535 17.6917 44.0385 15.8717 44.8085 14.285C45.6018 12.675 46.6751 11.415 48.0285 10.505C49.4051 9.57167 50.9568 9.105 52.6835 9.105C54.4101 9.105 55.9501 9.57167 57.3035 10.505C58.6801 11.415 59.7535 12.675 60.5235 14.285C61.3168 15.8717 61.7135 17.6917 61.7135 19.745ZM56.9885 19.745C56.9885 18.485 56.8018 17.3883 56.4285 16.455C56.0785 15.4983 55.5768 14.7517 54.9235 14.215C54.2701 13.6783 53.5235 13.41 52.6835 13.41C51.8201 13.41 51.0618 13.6783 50.4085 14.215C49.7551 14.7517 49.2418 15.4983 48.8685 16.455C48.5185 17.3883 48.3435 18.485 48.3435 19.745C48.3435 21.005 48.5185 22.1017 48.8685 23.035C49.2418 23.9683 49.7551 24.7033 50.4085 25.24C51.0618 25.7767 51.8201 26.045 52.6835 26.045C53.5235 26.045 54.2585 25.7767 54.8885 25.24C55.5418 24.7033 56.0551 23.9683 56.4285 23.035C56.8018 22.0783 56.9885 20.9817 56.9885 19.745Z" fill="white"/>
<path d="M74.368 13.22L65.872 26H64.486L72.982 13.22H74.368ZM89.6535 26H88.4295V20.762C88.4295 19.67 88.2555 18.866 87.9075 18.35C87.5595 17.834 87.0435 17.576 86.3595 17.576C85.6515 17.576 85.0155 17.828 84.4515 18.332C83.8995 18.836 83.5095 19.484 83.2815 20.276V26H82.0575V20.762C82.0575 19.658 81.8895 18.854 81.5535 18.35C81.2175 17.834 80.7015 17.576 80.0055 17.576C79.3095 17.576 78.6795 17.822 78.1155 18.314C77.5515 18.806 77.1555 19.454 76.9275 20.258V26H75.7035V16.622H76.8195V18.746C77.2155 18.014 77.7195 17.45 78.3315 17.054C78.9555 16.658 79.6455 16.46 80.4015 16.46C81.1815 16.46 81.8115 16.682 82.2915 17.126C82.7715 17.57 83.0655 18.152 83.1735 18.872C83.6055 18.08 84.1215 17.48 84.7215 17.072C85.3335 16.664 86.0235 16.46 86.7915 16.46C87.3195 16.46 87.7635 16.556 88.1235 16.748C88.4955 16.94 88.7895 17.216 89.0055 17.576C89.2335 17.924 89.3955 18.35 89.4915 18.854C89.5995 19.346 89.6535 19.898 89.6535 20.51V26ZM96.2405 26.18C95.5685 26.18 94.9445 26.054 94.3685 25.802C93.8045 25.538 93.3125 25.184 92.8925 24.74C92.4845 24.284 92.1665 23.768 91.9385 23.192C91.7105 22.604 91.5965 21.986 91.5965 21.338C91.5965 20.666 91.7105 20.042 91.9385 19.466C92.1665 18.878 92.4905 18.362 92.9105 17.918C93.3305 17.462 93.8225 17.108 94.3865 16.856C94.9625 16.592 95.5865 16.46 96.2585 16.46C96.9305 16.46 97.5485 16.592 98.1125 16.856C98.6765 17.108 99.1685 17.462 99.5885 17.918C100.009 18.362 100.333 18.878 100.561 19.466C100.789 20.042 100.903 20.666 100.903 21.338C100.903 21.986 100.789 22.604 100.561 23.192C100.333 23.768 100.009 24.284 99.5885 24.74C99.1805 25.184 98.6885 25.538 98.1125 25.802C97.5485 26.054 96.9245 26.18 96.2405 26.18ZM92.8385 21.356C92.8385 22.052 92.9885 22.688 93.2885 23.264C93.6005 23.828 94.0145 24.278 94.5305 24.614C95.0465 24.938 95.6165 25.1 96.2405 25.1C96.8645 25.1 97.4345 24.932 97.9505 24.596C98.4665 24.26 98.8805 23.804 99.1925 23.228C99.5045 22.64 99.6605 22.004 99.6605 21.32C99.6605 20.624 99.5045 19.988 99.1925 19.412C98.8805 18.836 98.4665 18.38 97.9505 18.044C97.4345 17.708 96.8645 17.54 96.2405 17.54C95.6165 17.54 95.0465 17.714 94.5305 18.062C94.0265 18.41 93.6185 18.872 93.3065 19.448C92.9945 20.012 92.8385 20.648 92.8385 21.356ZM110.834 26H109.61V20.762C109.61 19.658 109.448 18.854 109.124 18.35C108.8 17.834 108.29 17.576 107.594 17.576C107.114 17.576 106.64 17.696 106.172 17.936C105.704 18.164 105.29 18.482 104.93 18.89C104.582 19.286 104.33 19.742 104.174 20.258V26H102.95V16.622H104.066V18.746C104.318 18.29 104.648 17.894 105.056 17.558C105.464 17.21 105.926 16.94 106.442 16.748C106.958 16.556 107.492 16.46 108.044 16.46C108.56 16.46 108.998 16.556 109.358 16.748C109.718 16.94 110.006 17.216 110.222 17.576C110.438 17.924 110.594 18.35 110.69 18.854C110.786 19.346 110.834 19.898 110.834 20.51V26ZM117.856 25.55C117.76 25.586 117.61 25.652 117.406 25.748C117.202 25.844 116.956 25.928 116.668 26C116.38 26.072 116.068 26.108 115.732 26.108C115.384 26.108 115.054 26.042 114.742 25.91C114.442 25.778 114.202 25.58 114.022 25.316C113.842 25.04 113.752 24.704 113.752 24.308V17.594H112.456V16.622H113.752V13.454H114.976V16.622H117.136V17.594H114.976V23.966C115 24.302 115.12 24.554 115.336 24.722C115.564 24.89 115.822 24.974 116.11 24.974C116.446 24.974 116.752 24.92 117.028 24.812C117.304 24.692 117.472 24.608 117.532 24.56L117.856 25.55ZM127.269 26H126.045V20.762C126.045 19.706 125.859 18.914 125.487 18.386C125.115 17.846 124.581 17.576 123.885 17.576C123.429 17.576 122.973 17.696 122.517 17.936C122.073 18.164 121.677 18.482 121.329 18.89C120.993 19.286 120.753 19.742 120.609 20.258V26H119.385V12.86H120.609V18.746C120.981 18.05 121.497 17.498 122.157 17.09C122.829 16.67 123.543 16.46 124.299 16.46C124.839 16.46 125.295 16.556 125.667 16.748C126.051 16.94 126.357 17.222 126.585 17.594C126.825 17.954 126.999 18.38 127.107 18.872C127.215 19.352 127.269 19.898 127.269 20.51V26Z" fill="white"/>
</svg>
