<svg width="125" height="40" viewBox="0 0 125 40" fill="none" xmlns="http://www.w3.org/2000/svg">
<path d="M10.08 27.76H12.425V34.095H10.08V27.76ZM10.395 27.2V8.055L12.075 7.67V27.27L10.395 27.2ZM10.08 1.475H12.425V7.25L10.08 7.6V1.475ZM17.815 11.66C17.6517 11.4967 17.3483 11.275 16.905 10.995C16.485 10.715 15.96 10.4467 15.33 10.19C14.7233 9.93333 14.0583 9.71167 13.335 9.525C12.6117 9.315 11.8767 9.21 11.13 9.21C9.82333 9.21 8.83167 9.455 8.155 9.945C7.50167 10.435 7.175 11.1233 7.175 12.01C7.175 12.6867 7.385 13.2233 7.805 13.62C8.225 14.0167 8.855 14.355 9.695 14.635C10.535 14.915 11.585 15.2183 12.845 15.545C14.4783 15.9417 15.89 16.4317 17.08 17.015C18.2933 17.575 19.215 18.3217 19.845 19.255C20.4983 20.165 20.825 21.3783 20.825 22.895C20.825 24.225 20.58 25.3683 20.09 26.325C19.6 27.2583 18.9233 28.0167 18.06 28.6C17.1967 29.1833 16.205 29.615 15.085 29.895C13.9883 30.1517 12.8333 30.28 11.62 30.28C10.3833 30.28 9.135 30.1517 7.875 29.895C6.63833 29.6383 5.44833 29.2767 4.305 28.81C3.185 28.32 2.14667 27.7367 1.19 27.06L3.325 22.895C3.535 23.105 3.90833 23.385 4.445 23.735C4.98167 24.0617 5.62333 24.4 6.37 24.75C7.14 25.0767 7.98 25.3567 8.89 25.59C9.82333 25.8233 10.7567 25.94 11.69 25.94C12.9967 25.94 13.9883 25.7183 14.665 25.275C15.3417 24.8317 15.68 24.2017 15.68 23.385C15.68 22.6383 15.4117 22.055 14.875 21.635C14.3383 21.215 13.58 20.8533 12.6 20.55C11.6433 20.2233 10.5233 19.8733 9.24 19.5C7.65333 19.0567 6.335 18.5667 5.285 18.03C4.235 17.47 3.45333 16.77 2.94 15.93C2.42667 15.09 2.17 14.04 2.17 12.78C2.17 11.0767 2.57833 9.65333 3.395 8.51C4.21167 7.34333 5.30833 6.46833 6.685 5.885C8.06167 5.27833 9.59 4.975 11.27 4.975C12.4367 4.975 13.5333 5.10333 14.56 5.36C15.61 5.61667 16.59 5.955 17.5 6.375C18.41 6.795 19.2267 7.25 19.95 7.74L17.815 11.66ZM38.6326 25.765V30H24.4226V25.765H29.3926V15.16C29.1826 15.44 28.856 15.7317 28.4126 16.035C27.9693 16.315 27.4676 16.5833 26.9076 16.84C26.3476 17.0967 25.7876 17.3067 25.2276 17.47C24.6676 17.6333 24.166 17.715 23.7226 17.715V13.34C24.1426 13.34 24.6443 13.2117 25.2276 12.955C25.8343 12.675 26.4293 12.3483 27.0126 11.975C27.6193 11.6017 28.1326 11.24 28.5526 10.89C28.996 10.5167 29.276 10.225 29.3926 10.015H34.1876V25.765H38.6326ZM50.3975 34.445V29.23H40.1775V25.065L51.9025 10.015H55.0875V25.03H58.1675V29.23H55.0875V34.445H50.3975ZM44.8675 25.03H50.9225V17.12L44.8675 25.03Z" fill="white"/>
<path d="M70.368 13.22L61.872 26H60.486L68.982 13.22H70.368ZM85.6535 26H84.4295V20.762C84.4295 19.67 84.2555 18.866 83.9075 18.35C83.5595 17.834 83.0435 17.576 82.3595 17.576C81.6515 17.576 81.0155 17.828 80.4515 18.332C79.8995 18.836 79.5095 19.484 79.2815 20.276V26H78.0575V20.762C78.0575 19.658 77.8895 18.854 77.5535 18.35C77.2175 17.834 76.7015 17.576 76.0055 17.576C75.3095 17.576 74.6795 17.822 74.1155 18.314C73.5515 18.806 73.1555 19.454 72.9275 20.258V26H71.7035V16.622H72.8195V18.746C73.2155 18.014 73.7195 17.45 74.3315 17.054C74.9555 16.658 75.6455 16.46 76.4015 16.46C77.1815 16.46 77.8115 16.682 78.2915 17.126C78.7715 17.57 79.0655 18.152 79.1735 18.872C79.6055 18.08 80.1215 17.48 80.7215 17.072C81.3335 16.664 82.0235 16.46 82.7915 16.46C83.3195 16.46 83.7635 16.556 84.1235 16.748C84.4955 16.94 84.7895 17.216 85.0055 17.576C85.2335 17.924 85.3955 18.35 85.4915 18.854C85.5995 19.346 85.6535 19.898 85.6535 20.51V26ZM92.2405 26.18C91.5685 26.18 90.9445 26.054 90.3685 25.802C89.8045 25.538 89.3125 25.184 88.8925 24.74C88.4845 24.284 88.1665 23.768 87.9385 23.192C87.7105 22.604 87.5965 21.986 87.5965 21.338C87.5965 20.666 87.7105 20.042 87.9385 19.466C88.1665 18.878 88.4905 18.362 88.9105 17.918C89.3305 17.462 89.8225 17.108 90.3865 16.856C90.9625 16.592 91.5865 16.46 92.2585 16.46C92.9305 16.46 93.5485 16.592 94.1125 16.856C94.6765 17.108 95.1685 17.462 95.5885 17.918C96.0085 18.362 96.3325 18.878 96.5605 19.466C96.7885 20.042 96.9025 20.666 96.9025 21.338C96.9025 21.986 96.7885 22.604 96.5605 23.192C96.3325 23.768 96.0085 24.284 95.5885 24.74C95.1805 25.184 94.6885 25.538 94.1125 25.802C93.5485 26.054 92.9245 26.18 92.2405 26.18ZM88.8385 21.356C88.8385 22.052 88.9885 22.688 89.2885 23.264C89.6005 23.828 90.0145 24.278 90.5305 24.614C91.0465 24.938 91.6165 25.1 92.2405 25.1C92.8645 25.1 93.4345 24.932 93.9505 24.596C94.4665 24.26 94.8805 23.804 95.1925 23.228C95.5045 22.64 95.6605 22.004 95.6605 21.32C95.6605 20.624 95.5045 19.988 95.1925 19.412C94.8805 18.836 94.4665 18.38 93.9505 18.044C93.4345 17.708 92.8645 17.54 92.2405 17.54C91.6165 17.54 91.0465 17.714 90.5305 18.062C90.0265 18.41 89.6185 18.872 89.3065 19.448C88.9945 20.012 88.8385 20.648 88.8385 21.356ZM106.834 26H105.61V20.762C105.61 19.658 105.448 18.854 105.124 18.35C104.8 17.834 104.29 17.576 103.594 17.576C103.114 17.576 102.64 17.696 102.172 17.936C101.704 18.164 101.29 18.482 100.93 18.89C100.582 19.286 100.33 19.742 100.174 20.258V26H98.9496V16.622H100.066V18.746C100.318 18.29 100.648 17.894 101.056 17.558C101.464 17.21 101.926 16.94 102.442 16.748C102.958 16.556 103.492 16.46 104.044 16.46C104.56 16.46 104.998 16.556 105.358 16.748C105.718 16.94 106.006 17.216 106.222 17.576C106.438 17.924 106.594 18.35 106.69 18.854C106.786 19.346 106.834 19.898 106.834 20.51V26ZM113.856 25.55C113.76 25.586 113.61 25.652 113.406 25.748C113.202 25.844 112.956 25.928 112.668 26C112.38 26.072 112.068 26.108 111.732 26.108C111.384 26.108 111.054 26.042 110.742 25.91C110.442 25.778 110.202 25.58 110.022 25.316C109.842 25.04 109.752 24.704 109.752 24.308V17.594H108.456V16.622H109.752V13.454H110.976V16.622H113.136V17.594H110.976V23.966C111 24.302 111.12 24.554 111.336 24.722C111.564 24.89 111.822 24.974 112.11 24.974C112.446 24.974 112.752 24.92 113.028 24.812C113.304 24.692 113.472 24.608 113.532 24.56L113.856 25.55ZM123.269 26H122.045V20.762C122.045 19.706 121.859 18.914 121.487 18.386C121.115 17.846 120.581 17.576 119.885 17.576C119.429 17.576 118.973 17.696 118.517 17.936C118.073 18.164 117.677 18.482 117.329 18.89C116.993 19.286 116.753 19.742 116.609 20.258V26H115.385V12.86H116.609V18.746C116.981 18.05 117.497 17.498 118.157 17.09C118.829 16.67 119.543 16.46 120.299 16.46C120.839 16.46 121.295 16.556 121.667 16.748C122.051 16.94 122.357 17.222 122.585 17.594C122.825 17.954 122.999 18.38 123.107 18.872C123.215 19.352 123.269 19.898 123.269 20.51V26Z" fill="white"/>
</svg>
