<svg width="107" height="40" viewBox="0 0 107 40" fill="none" xmlns="http://www.w3.org/2000/svg">
<path d="M10.08 27.76H12.425V34.095H10.08V27.76ZM10.395 27.2V8.055L12.075 7.67V27.27L10.395 27.2ZM10.08 1.475H12.425V7.25L10.08 7.6V1.475ZM17.815 11.66C17.6517 11.4967 17.3483 11.275 16.905 10.995C16.485 10.715 15.96 10.4467 15.33 10.19C14.7233 9.93333 14.0583 9.71167 13.335 9.525C12.6117 9.315 11.8767 9.21 11.13 9.21C9.82333 9.21 8.83167 9.455 8.155 9.945C7.50167 10.435 7.175 11.1233 7.175 12.01C7.175 12.6867 7.385 13.2233 7.805 13.62C8.225 14.0167 8.855 14.355 9.695 14.635C10.535 14.915 11.585 15.2183 12.845 15.545C14.4783 15.9417 15.89 16.4317 17.08 17.015C18.2933 17.575 19.215 18.3217 19.845 19.255C20.4983 20.165 20.825 21.3783 20.825 22.895C20.825 24.225 20.58 25.3683 20.09 26.325C19.6 27.2583 18.9233 28.0167 18.06 28.6C17.1967 29.1833 16.205 29.615 15.085 29.895C13.9883 30.1517 12.8333 30.28 11.62 30.28C10.3833 30.28 9.135 30.1517 7.875 29.895C6.63833 29.6383 5.44833 29.2767 4.305 28.81C3.185 28.32 2.14667 27.7367 1.19 27.06L3.325 22.895C3.535 23.105 3.90833 23.385 4.445 23.735C4.98167 24.0617 5.62333 24.4 6.37 24.75C7.14 25.0767 7.98 25.3567 8.89 25.59C9.82333 25.8233 10.7567 25.94 11.69 25.94C12.9967 25.94 13.9883 25.7183 14.665 25.275C15.3417 24.8317 15.68 24.2017 15.68 23.385C15.68 22.6383 15.4117 22.055 14.875 21.635C14.3383 21.215 13.58 20.8533 12.6 20.55C11.6433 20.2233 10.5233 19.8733 9.24 19.5C7.65333 19.0567 6.335 18.5667 5.285 18.03C4.235 17.47 3.45333 16.77 2.94 15.93C2.42667 15.09 2.17 14.04 2.17 12.78C2.17 11.0767 2.57833 9.65333 3.395 8.51C4.21167 7.34333 5.30833 6.46833 6.685 5.885C8.06167 5.27833 9.59 4.975 11.27 4.975C12.4367 4.975 13.5333 5.10333 14.56 5.36C15.61 5.61667 16.59 5.955 17.5 6.375C18.41 6.795 19.2267 7.25 19.95 7.74L17.815 11.66ZM31.3526 35.215C29.556 35.215 27.9343 34.83 26.4876 34.06C25.041 33.29 23.9443 32.24 23.1976 30.91L25.8926 28.11C26.546 29.02 27.3626 29.7433 28.3426 30.28C29.3226 30.8167 30.3376 31.085 31.3876 31.085C32.2276 31.085 32.9626 30.91 33.5926 30.56C34.246 30.21 34.7593 29.72 35.1326 29.09C35.506 28.46 35.6926 27.7367 35.6926 26.92C35.6926 26.1033 35.5176 25.3917 35.1676 24.785C34.8176 24.1783 34.3393 23.7117 33.7326 23.385C33.126 23.035 32.4376 22.86 31.6676 22.86C30.8976 22.86 30.1743 23.035 29.4976 23.385C28.8443 23.7117 28.3193 24.19 27.9226 24.82H23.8276L26.6976 10.015H38.9476V14.285H30.0926L29.0776 19.85C29.381 19.57 29.801 19.3367 30.3376 19.15C30.8743 18.94 31.5393 18.835 32.3326 18.835C33.896 18.835 35.296 19.1733 36.5326 19.85C37.7693 20.5267 38.7376 21.4717 39.4376 22.685C40.1376 23.875 40.4876 25.2517 40.4876 26.815C40.4876 28.4717 40.091 29.93 39.2976 31.19C38.5043 32.4733 37.4193 33.465 36.0426 34.165C34.666 34.865 33.1026 35.215 31.3526 35.215Z" fill="white"/>
<path d="M52.368 13.22L43.872 26H42.486L50.982 13.22H52.368ZM67.6535 26H66.4295V20.762C66.4295 19.67 66.2555 18.866 65.9075 18.35C65.5595 17.834 65.0435 17.576 64.3595 17.576C63.6515 17.576 63.0155 17.828 62.4515 18.332C61.8995 18.836 61.5095 19.484 61.2815 20.276V26H60.0575V20.762C60.0575 19.658 59.8895 18.854 59.5535 18.35C59.2175 17.834 58.7015 17.576 58.0055 17.576C57.3095 17.576 56.6795 17.822 56.1155 18.314C55.5515 18.806 55.1555 19.454 54.9275 20.258V26H53.7035V16.622H54.8195V18.746C55.2155 18.014 55.7195 17.45 56.3315 17.054C56.9555 16.658 57.6455 16.46 58.4015 16.46C59.1815 16.46 59.8115 16.682 60.2915 17.126C60.7715 17.57 61.0655 18.152 61.1735 18.872C61.6055 18.08 62.1215 17.48 62.7215 17.072C63.3335 16.664 64.0235 16.46 64.7915 16.46C65.3195 16.46 65.7635 16.556 66.1235 16.748C66.4955 16.94 66.7895 17.216 67.0055 17.576C67.2335 17.924 67.3955 18.35 67.4915 18.854C67.5995 19.346 67.6535 19.898 67.6535 20.51V26ZM74.2405 26.18C73.5685 26.18 72.9445 26.054 72.3685 25.802C71.8045 25.538 71.3125 25.184 70.8925 24.74C70.4845 24.284 70.1665 23.768 69.9385 23.192C69.7105 22.604 69.5965 21.986 69.5965 21.338C69.5965 20.666 69.7105 20.042 69.9385 19.466C70.1665 18.878 70.4905 18.362 70.9105 17.918C71.3305 17.462 71.8225 17.108 72.3865 16.856C72.9625 16.592 73.5865 16.46 74.2585 16.46C74.9305 16.46 75.5485 16.592 76.1125 16.856C76.6765 17.108 77.1685 17.462 77.5885 17.918C78.0085 18.362 78.3325 18.878 78.5605 19.466C78.7885 20.042 78.9025 20.666 78.9025 21.338C78.9025 21.986 78.7885 22.604 78.5605 23.192C78.3325 23.768 78.0085 24.284 77.5885 24.74C77.1805 25.184 76.6885 25.538 76.1125 25.802C75.5485 26.054 74.9245 26.18 74.2405 26.18ZM70.8385 21.356C70.8385 22.052 70.9885 22.688 71.2885 23.264C71.6005 23.828 72.0145 24.278 72.5305 24.614C73.0465 24.938 73.6165 25.1 74.2405 25.1C74.8645 25.1 75.4345 24.932 75.9505 24.596C76.4665 24.26 76.8805 23.804 77.1925 23.228C77.5045 22.64 77.6605 22.004 77.6605 21.32C77.6605 20.624 77.5045 19.988 77.1925 19.412C76.8805 18.836 76.4665 18.38 75.9505 18.044C75.4345 17.708 74.8645 17.54 74.2405 17.54C73.6165 17.54 73.0465 17.714 72.5305 18.062C72.0265 18.41 71.6185 18.872 71.3065 19.448C70.9945 20.012 70.8385 20.648 70.8385 21.356ZM88.8336 26H87.6096V20.762C87.6096 19.658 87.4476 18.854 87.1236 18.35C86.7996 17.834 86.2896 17.576 85.5936 17.576C85.1136 17.576 84.6396 17.696 84.1716 17.936C83.7036 18.164 83.2896 18.482 82.9296 18.89C82.5816 19.286 82.3296 19.742 82.1736 20.258V26H80.9496V16.622H82.0656V18.746C82.3176 18.29 82.6476 17.894 83.0556 17.558C83.4636 17.21 83.9256 16.94 84.4416 16.748C84.9576 16.556 85.4916 16.46 86.0436 16.46C86.5596 16.46 86.9976 16.556 87.3576 16.748C87.7176 16.94 88.0056 17.216 88.2216 17.576C88.4376 17.924 88.5936 18.35 88.6896 18.854C88.7856 19.346 88.8336 19.898 88.8336 20.51V26ZM95.8559 25.55C95.7599 25.586 95.6099 25.652 95.4059 25.748C95.2019 25.844 94.9559 25.928 94.6679 26C94.3799 26.072 94.0679 26.108 93.7319 26.108C93.3839 26.108 93.0539 26.042 92.7419 25.91C92.4419 25.778 92.2019 25.58 92.0219 25.316C91.8419 25.04 91.7519 24.704 91.7519 24.308V17.594H90.4559V16.622H91.7519V13.454H92.9759V16.622H95.1359V17.594H92.9759V23.966C92.9999 24.302 93.1199 24.554 93.3359 24.722C93.5639 24.89 93.8219 24.974 94.1099 24.974C94.4459 24.974 94.7519 24.92 95.0279 24.812C95.3039 24.692 95.4719 24.608 95.5319 24.56L95.8559 25.55ZM105.269 26H104.045V20.762C104.045 19.706 103.859 18.914 103.487 18.386C103.115 17.846 102.581 17.576 101.885 17.576C101.429 17.576 100.973 17.696 100.517 17.936C100.073 18.164 99.6772 18.482 99.3292 18.89C98.9932 19.286 98.7532 19.742 98.6092 20.258V26H97.3852V12.86H98.6092V18.746C98.9812 18.05 99.4972 17.498 100.157 17.09C100.829 16.67 101.543 16.46 102.299 16.46C102.839 16.46 103.295 16.556 103.667 16.748C104.051 16.94 104.357 17.222 104.585 17.594C104.825 17.954 104.999 18.38 105.107 18.872C105.215 19.352 105.269 19.898 105.269 20.51V26Z" fill="white"/>
</svg>
